<?xml version="1.0" encoding="iso-8859-1"?>
<!-- Generator: Adobe Illustrator 19.0.0, SVG Export Plug-In . SVG Version: 6.00 Build 0)  -->
<svg version="1.1" id="Capa_1" xmlns="http://www.w3.org/2000/svg" xmlns:xlink="http://www.w3.org/1999/xlink" x="0px" y="0px"
	 viewBox="0 0 512 512" style="enable-background:new 0 0 512 512;" xml:space="preserve">
<path style="fill:#E0230D;" d="M367.775,19.058c-3.286,0-6.552,0.113-9.787,0.33L256.103,492.88
	c5.862-3.41,255.866-150.2,255.897-329.576C512,83.651,447.428,19.058,367.775,19.058z"/>
<path style="fill:#FF5440;" d="M357.988,19.388c63.006,5.027,112.805,67.549,112.805,143.916
	c-0.031,179.19-209.364,325.867-214.69,329.576c-0.072,0.041-0.103,0.062-0.103,0.062S0,344.802,0,163.284
	C0,83.63,64.572,19.058,144.225,19.058c45.081,0,85.33,20.686,111.775,53.085C280.518,42.103,316.894,22.139,357.988,19.388z"/>
<g>
</g>
<g>
</g>
<g>
</g>
<g>
</g>
<g>
</g>
<g>
</g>
<g>
</g>
<g>
</g>
<g>
</g>
<g>
</g>
<g>
</g>
<g>
</g>
<g>
</g>
<g>
</g>
<g>
</g>
</svg>
